<svg width="502" height="502" viewBox="0 0 502 502" fill="none" xmlns="http://www.w3.org/2000/svg">
<g clip-path="url(#clip0_33_25)">
<path d="M491.796 438.532L344.031 290.768C331.837 278.573 328.24 260.317 334.868 244.257C343.92 222.323 348.317 199.063 347.937 175.123C347.205 129.016 328.811 85.926 296.145 53.791C263.483 21.662 220.097 3.96704 173.979 3.96704C128.09 3.96704 84.792 21.676 52.06 53.831C19.372 85.944 0.89498 128.836 0.0319803 174.605C-0.85402 221.534 16.873 265.945 49.945 299.657C82.999 333.349 127.03 351.912 173.928 351.926C173.945 351.926 173.962 351.926 173.98 351.926C200.226 351.926 225.454 346.224 248.963 334.977C265.439 327.095 285.061 330.357 297.795 343.091L442.517 487.811C449.098 494.392 457.849 498.017 467.156 498.017C476.462 498.017 485.213 494.392 491.796 487.81C505.381 474.224 505.381 452.118 491.796 438.532ZM477.654 473.668C474.849 476.472 471.121 478.016 467.156 478.016C463.191 478.016 459.463 476.472 456.659 473.668L311.938 328.948C300.001 317.012 283.977 310.724 267.68 310.724C258.419 310.724 249.069 312.756 240.332 316.935C219.537 326.883 197.216 331.926 173.98 331.926C173.965 331.926 173.947 331.926 173.933 331.926C132.447 331.914 93.484 315.48 64.221 285.651C34.94 255.803 19.244 216.5 20.027 174.982C21.598 91.712 90.66 23.967 173.979 23.967C258.962 23.967 326.59 90.502 327.939 175.44C328.275 196.64 324.387 217.226 316.379 236.627C306.659 260.181 311.961 286.983 329.888 304.91L477.653 452.673C483.441 458.462 483.441 467.88 477.654 473.668Z" fill="white"/>
<path d="M173.98 54.6521C105.995 54.6521 50.685 109.962 50.685 177.947C50.685 245.932 105.995 301.242 173.98 301.242C241.965 301.242 297.275 245.932 297.275 177.947C297.275 109.962 241.965 54.6521 173.98 54.6521ZM173.98 281.242C117.023 281.242 70.685 234.904 70.685 177.947C70.685 120.99 117.023 74.6521 173.98 74.6521C230.937 74.6521 277.275 120.99 277.275 177.947C277.275 234.904 230.937 281.242 173.98 281.242Z" fill="white"/>
</g>
<defs>
<clipPath id="clip0_33_25">
<rect width="501.984" height="501.984" fill="white"/>
</clipPath>
</defs>
</svg>
