<svg width="503" height="480" viewBox="0 0 503 480" fill="none" xmlns="http://www.w3.org/2000/svg">
<path d="M264.339 11.3693L313.274 161.975C315.483 168.774 321.818 173.376 328.967 173.376H487.323C500.401 173.376 505.838 190.111 495.258 197.798L367.145 290.878C361.362 295.079 358.942 302.527 361.151 309.325L410.086 459.931C414.127 472.369 399.892 482.712 389.312 475.025L261.198 381.945C255.415 377.744 247.585 377.744 241.802 381.945L113.688 475.025C103.108 482.712 88.8729 472.369 92.9141 459.931L141.849 309.325C144.058 302.527 141.638 295.079 135.855 290.878L7.74189 197.798C-2.83824 190.111 2.59924 173.376 15.677 173.376H174.033C181.182 173.376 187.517 168.774 189.726 161.975L238.661 11.3693C242.702 -1.06841 260.298 -1.0684 264.339 11.3693Z" fill="#FFB800" stroke="black" stroke-width="3"/>
</svg>
