<svg id="Layer_1" enable-background="new 0 0 64 64" height="512" viewBox="0 0 64 64" width="512" xmlns="http://www.w3.org/2000/svg"><g><g><g><g><path d="m48.8 34h-32.9c-1.1 0-2-.9-2-2s.9-2 2-2h32.9c1.1 0 2 .9 2 2s-.9 2-2 2z"/></g></g></g><g><g><g><path d="m28 47.1c-.5 0-1-.2-1.4-.6l-12.9-12.9c-.4-.4-.6-.9-.6-1.4s.2-1 .6-1.4l13.2-13.2c.8-.8 2-.8 2.8 0s.8 2 0 2.8l-11.8 11.8 11.5 11.5c.8.8.8 2 0 2.8-.4.4-.9.6-1.4.6z"/></g></g></g><g><g><g><path d="m54.8 63h-45.6c-1.1 0-2-.9-2-2v-58c0-1.1.9-2 2-2h45.6c1.1 0 2 .9 2 2v14.1c0 1.1-.9 2-2 2s-2-.9-2-2v-12.1h-41.6v54h41.6v-12.1c0-1.1.9-2 2-2s2 .9 2 2v14.1c0 1.1-.9 2-2 2z"/></g></g></g></g></svg>